<?xml version="1.0" encoding="utf-8"?>
<!-- Generator: Adobe Illustrator 24.0.0, SVG Export Plug-In . SVG Version: 6.00 Build 0)  -->
<svg version="1.1" xmlns="http://www.w3.org/2000/svg" xmlns:xlink="http://www.w3.org/1999/xlink" x="0px" y="0px"
	 viewBox="0 0 1280 1024" style="enable-background:new 0 0 1280 1024;" xml:space="preserve">
<style type="text/css">
	.st0{display:none;}
	.st1{display:inline;fill:#BFBFBF;}
	.st2{fill:#262626;stroke:#262626;stroke-width:11;stroke-linejoin:round;stroke-miterlimit:10;}
	.st3{fill:#F9F9F9;}
</style>
<g id="Layer_2" class="st0">
	<rect y="-1.07" class="st1" width="1280" height="1025.07"/>
</g>
<g id="Layer_1">
	<g>
		<g>
		</g>
	</g>
	<path class="st2" d="M774.53,637.7c0-62.69-50.22-113.58-112.38-114.11c-62.52-0.53-114.07,50.67-114.34,113.61
		c-0.22,50.15,31.71,92.82,76.23,108.35c5.37,1.87,10.07,5.3,13.35,9.96l23.78,33.84l22.94-32.65c3.72-5.29,8.98-9.29,15.04-11.46
		C743.08,729.52,774.53,687.31,774.53,637.7z"/>
	<path class="st3" d="M730.86,596.3c-5.13,2.36-10.64,3.96-16.42,4.67c5.9-3.67,10.44-9.49,12.57-16.43
		c-5.53,3.4-11.64,5.87-18.16,7.2c-5.22-5.77-12.65-9.38-20.87-9.38c-15.79,0-28.59,13.29-28.59,29.69c0,2.33,0.25,4.59,0.74,6.77
		c-23.76-1.24-44.83-13.06-58.94-31.02c-2.46,4.38-3.87,9.48-3.87,14.93c0,10.3,5.05,19.39,12.72,24.71
		c-4.69-0.15-9.1-1.49-12.95-3.71c0,0.12,0,0.25,0,0.37c0,14.38,9.86,26.38,22.94,29.11c-2.4,0.68-4.93,1.04-7.53,1.04
		c-1.84,0-3.63-0.19-5.38-0.53c3.64,11.79,14.2,20.38,26.71,20.62c-9.79,7.96-22.12,12.71-35.51,12.71c-2.31,0-4.58-0.14-6.82-0.42
		c12.65,8.42,27.68,13.34,43.83,13.34c52.6,0,81.36-45.24,81.36-84.47c0-1.29-0.03-2.57-0.08-3.84
		C722.18,607.48,727.02,602.26,730.86,596.3z"/>
</g>
</svg>
